{
    "asset" : {
        "generator" : "Khronos glTF Blender I/O v3.2.43",
        "version" : "2.0"
    },
    "scene" : 0,
    "scenes" : [
        {
            "name" : "Scene",
            "nodes" : [
                0
            ]
        }
    ],
    "nodes" : [
        {
            "mesh" : 0,
            "name" : "Text",
            "rotation" : [
                0.7069844007492065,
                0,
                0,
                0.7072291374206543
            ]
        }
    ],
    "materials" : [
        {
            "doubleSided" : true,
            "emissiveFactor" : [
                1,
                1,
                1
            ],
            "name" : "Material.001",
            "pbrMetallicRoughness" : {
                "baseColorFactor" : [
                    0,
                    0,
                    0,
                    1
                ]
            }
        }
    ],
    "meshes" : [
        {
            "name" : "Text",
            "primitives" : [
                {
                    "attributes" : {
                        "POSITION" : 0,
                        "NORMAL" : 1,
                        "TEXCOORD_0" : 2
                    },
                    "indices" : 3,
                    "material" : 0
                }
            ]
        }
    ],
    "accessors" : [
        {
            "bufferView" : 0,
            "componentType" : 5126,
            "count" : 7920,
            "max" : [
                1.3880350589752197,
                0.007608452346175909,
                0.24826154112815857
            ],
            "min" : [
                -1.3526932001113892,
                -0.007608453277498484,
                -0.33809348940849304
            ],
            "type" : "VEC3"
        },
        {
            "bufferView" : 1,
            "componentType" : 5126,
            "count" : 7920,
            "type" : "VEC3"
        },
        {
            "bufferView" : 2,
            "componentType" : 5126,
            "count" : 7920,
            "type" : "VEC2"
        },
        {
            "bufferView" : 3,
            "componentType" : 5123,
            "count" : 42660,
            "type" : "SCALAR"
        }
    ],
    "bufferViews" : [
        {
            "buffer" : 0,
            "byteLength" : 95040,
            "byteOffset" : 0
        },
        {
            "buffer" : 0,
            "byteLength" : 95040,
            "byteOffset" : 95040
        },
        {
            "buffer" : 0,
            "byteLength" : 63360,
            "byteOffset" : 190080
        },
        {
            "buffer" : 0,
            "byteLength" : 85320,
            "byteOffset" : 253440
        }
    ],
    "buffers" : [
        {
            "byteLength" : 338760,
            "uri" : "ricocode-neonlight.bin"
        }
    ]
}
